<svg xmlns="http://www.w3.org/2000/svg" fill="none" viewBox="0 0 357 449"><path fill="url(#paint0_linear_157_2277)" d="M231.02 119.135l85.548 38.701-44.654-81.327a30.86 30.86 0 0 1 12.744-28.17l67.445-45.625a11.388 11.388 0 0 1 5.539-2.128 11.364 11.364 0 0 1 12.49 10.284l22.254 226.621a35.337 35.337 0 0 1-14.582 32.233l-77.959 55.661 84.426 10.458a29.652 29.652 0 0 1 11.71 9.698 29.711 29.711 0 0 1 5.371 14.236l9.836 75.474a12.401 12.401 0 0 1-5.112 11.23 12.37 12.37 0 0 1-12.261 1.25L179.99 350.998a19.763 19.763 0 0 1-8.091-6.498 19.807 19.807 0 0 1-3.69-9.709l-10.191-104.457-51.744 71.653a28.808 28.808 0 0 1-13.956 5.301 28.76 28.76 0 0 1-14.725-2.396L8.091 273.45a13.16 13.16 0 0 1-7.678-10.729 13.195 13.195 0 0 1 5.48-12.019l176.972-127.139a47.82 47.82 0 0 1 23.485-8.758 47.734 47.734 0 0 1 24.67 4.33zm70.547 117.949l-52.854-47.839a8.002 8.002 0 0 0-7.641-1.353 8.04 8.04 0 0 0-5.213 5.762l-14.709 69.482a7.915 7.915 0 0 0 6.037 9.466 7.904 7.904 0 0 0 4.105-.201l67.817-21.963a7.932 7.932 0 0 0 2.335-13.083l.123-.271z" opacity=".1"/><defs><linearGradient id="paint0_linear_157_2277" x1="437.5" x2="11.5" y1="-61.5" y2="308" gradientUnits="userSpaceOnUse"><stop stop-color="#5963A5"/><stop offset="1" stop-color="#95C6D7"/></linearGradient></defs></svg>