<svg xmlns="http://www.w3.org/2000/svg" fill="none" viewBox="0 0 375 684"><g clip-path="url(#clip0_157_2270)"><path fill="#fff" d="M0 684V25C0 11.193 11.193 0 25 0h325c13.807 0 25 11.193 25 25v659H0z"/><g filter="url(#filter0_f_157_2270)"><path fill="#FDEDD9" d="M-18.59 301.468c15.62-67.569-51.523-72.367-60.734-126.522-32.724-192.383 423.879-210.633 492.717-12.682 65.126 187.279-309.325 380.169-309.325 380.169s-99.207 37.276-139.33 0c-36.211-33.641-34.457-77.511-21.734-125.616 10.053-38.005 29.548-77.039 38.405-115.349z"/></g><g filter="url(#filter1_f_157_2270)"><path fill="#7F30FF" d="M157.409-125.053c15.622-67.443-51.522-72.232-60.733-126.286-32.724-192.025 423.879-210.241 492.717-12.658 65.126 186.93-309.325 379.461-309.325 379.461s-99.207 37.207-139.331 0c-36.21-33.579-34.456-77.367-21.733-125.382 10.052-37.935 29.548-76.896 38.405-115.135z"/></g><g filter="url(#filter2_f_157_2270)"><path fill="#DBD4F2" d="M339.873-102.865c22.997-99.403-75.846-106.461-89.406-186.13-48.172-283.023 623.998-309.871 725.334-18.658C1071.67-32.14 520.44 251.627 520.44 251.627s-146.043 54.839-205.11 0c-53.306-49.49-50.724-114.029-31.993-184.798 14.798-55.91 43.498-113.334 56.536-169.694z"/></g><g filter="url(#filter3_f_157_2270)"><ellipse cx="656" cy="216" fill="#8EA6F2" rx="421" ry="415" transform="rotate(-90 656 216)"/></g><g filter="url(#filter4_f_157_2270)"><path fill="#C7FFB9" d="M607.178 676.141c91.178 34.58 160.659 49.709 246.214 0 166.798-96.913 165.488-443.992 0-543.761-130.796-78.855-235.92 36.264-364.302 120.056-56.648 36.973-103.854 46.56-135.506 111.36-70.829 145.006 114.864 259.732 253.594 312.345z"/></g><g filter="url(#filter5_f_157_2270)"><ellipse cx="784.5" cy="733.5" fill="#FCFFFC" rx="267.5" ry="263.5" transform="rotate(-90 784.5 733.5)"/></g></g><defs><filter id="filter0_f_157_2270" width="1516.24" height="1551.24" x="-588.118" y="-485.118" color-interpolation-filters="sRGB" filterUnits="userSpaceOnUse"><feFlood flood-opacity="0" result="BackgroundImageFix"/><feBlend in="SourceGraphic" in2="BackgroundImageFix" result="shape"/><feGaussianBlur result="effect1_foregroundBlur_157_2270" stdDeviation="253.559"/></filter><filter id="filter1_f_157_2270" width="1516.24" height="1550.24" x="-412.118" y="-911.118" color-interpolation-filters="sRGB" filterUnits="userSpaceOnUse"><feFlood flood-opacity="0" result="BackgroundImageFix"/><feBlend in="SourceGraphic" in2="BackgroundImageFix" result="shape"/><feGaussianBlur result="effect1_foregroundBlur_157_2270" stdDeviation="253.559"/></filter><filter id="filter2_f_157_2270" width="1753.24" height="1804.24" x="-259.118" y="-1021.12" color-interpolation-filters="sRGB" filterUnits="userSpaceOnUse"><feFlood flood-opacity="0" result="BackgroundImageFix"/><feBlend in="SourceGraphic" in2="BackgroundImageFix" result="shape"/><feGaussianBlur result="effect1_foregroundBlur_157_2270" stdDeviation="253.559"/></filter><filter id="filter3_f_157_2270" width="1844.24" height="1856.24" x="-266.118" y="-712.118" color-interpolation-filters="sRGB" filterUnits="userSpaceOnUse"><feFlood flood-opacity="0" result="BackgroundImageFix"/><feBlend in="SourceGraphic" in2="BackgroundImageFix" result="shape"/><feGaussianBlur result="effect1_foregroundBlur_157_2270" stdDeviation="253.559"/></filter><filter id="filter4_f_157_2270" width="1654.24" height="1616.24" x="-169.118" y="-401.118" color-interpolation-filters="sRGB" filterUnits="userSpaceOnUse"><feFlood flood-opacity="0" result="BackgroundImageFix"/><feBlend in="SourceGraphic" in2="BackgroundImageFix" result="shape"/><feGaussianBlur result="effect1_foregroundBlur_157_2270" stdDeviation="253.559"/></filter><filter id="filter5_f_157_2270" width="1541.24" height="1549.24" x="13.882" y="-41.118" color-interpolation-filters="sRGB" filterUnits="userSpaceOnUse"><feFlood flood-opacity="0" result="BackgroundImageFix"/><feBlend in="SourceGraphic" in2="BackgroundImageFix" result="shape"/><feGaussianBlur result="effect1_foregroundBlur_157_2270" stdDeviation="253.559"/></filter><clipPath id="clip0_157_2270"><path fill="#fff" d="M0 684V25C0 11.193 11.193 0 25 0h325c13.807 0 25 11.193 25 25v659H0z"/></clipPath></defs></svg>